<?xml version="1.0" standalone="no"?>
<!DOCTYPE svg PUBLIC "-//W3C//DTD SVG 20010904//EN"
 "http://www.w3.org/TR/2001/REC-SVG-20010904/DTD/svg10.dtd">
<svg version="1.0" xmlns="http://www.w3.org/2000/svg"
 width="512.000000pt" height="512.000000pt" viewBox="0 0 512.000000 512.000000"
 preserveAspectRatio="xMidYMid meet">
<metadata>
Created by potrace 1.11, written by Peter Selinger 2001-2013
</metadata>
<g transform="translate(0.000000,512.000000) scale(0.100000,-0.100000)"
fill="#000000" stroke="none">
<path d="M1531 5104 c-344 -92 -583 -491 -576 -964 2 -132 7 -170 37 -295 56
-237 189 -448 353 -558 73 -49 74 -51 70 -96 -2 -20 -7 -142 -10 -271 -4 -129
-8 -278 -10 -330 -2 -52 -6 -189 -10 -305 -3 -115 -8 -268 -10 -340 -3 -71 -7
-206 -10 -300 -3 -93 -7 -240 -10 -325 -3 -85 -7 -222 -10 -305 -2 -82 -7
-235 -11 -340 -12 -353 -11 -389 6 -444 49 -149 183 -240 339 -229 180 13 313
167 305 351 -1 29 -5 156 -8 282 -4 127 -9 284 -11 350 -5 133 -12 338 -20
610 -3 99 -8 241 -10 315 -3 74 -7 223 -10 330 -4 107 -8 245 -10 305 -2 61
-6 214 -10 340 -3 127 -8 258 -10 292 l-4 63 57 36 c123 79 243 230 313 393
146 345 119 789 -68 1102 -126 212 -314 337 -518 344 -57 2 -110 -2 -144 -11z"/>
<path d="M2915 5104 c-42 -24 -72 -62 -80 -100 -3 -19 -6 -334 -6 -701 0 -732
-1 -710 62 -834 58 -115 210 -232 331 -254 l37 -7 -4 -92 c-2 -50 -7 -197 -10
-326 -4 -129 -8 -273 -10 -320 -2 -47 -6 -184 -10 -305 -3 -121 -8 -267 -10
-325 -2 -58 -7 -206 -10 -330 -4 -124 -8 -265 -10 -315 -14 -427 -19 -596 -19
-760 -1 -185 0 -191 25 -245 31 -66 81 -117 152 -156 46 -26 62 -29 142 -29
102 0 153 18 219 76 93 81 119 164 112 356 -3 76 -8 228 -11 338 -3 110 -7
254 -10 320 -3 66 -7 206 -10 310 -3 105 -8 246 -10 315 -2 69 -7 211 -10 315
-6 203 -13 420 -20 630 -3 72 -7 223 -11 336 l-5 205 63 18 c155 43 286 169
340 326 l23 65 0 702 c0 696 0 702 -21 730 -72 97 -198 97 -262 0 l-26 -39 0
-340 -1 -340 -33 -29 c-44 -39 -90 -39 -134 0 l-33 29 -3 337 c-2 285 -5 342
-19 369 -23 46 -46 64 -98 78 -61 16 -117 -3 -159 -55 l-31 -39 -1 -339 c-2
-373 -2 -373 -64 -399 -42 -17 -97 -3 -123 31 -18 25 -19 47 -20 366 l-2 340
-28 36 c-35 46 -55 57 -115 63 -33 3 -56 -1 -77 -12z"/>
</g>
</svg>
